<svg id="game-picture" viewBox="0 0 370 590" fill="none" xmlns="http://www.w3.org/2000/svg">
  <g class="gallows" fill="black" stroke-width="3">
    <rect x="176.337" y="34.6662" width="39" height="199.598" transform="rotate(45 176.337 34.6662)" stroke="var(--color-bg-main, #fffefe)" />
    <rect x="34.5" y="1.5" width="39" height="578" rx="3.5" stroke="var(--color-bg-main, #fffefe)" />
    <rect x="351.5" y="34.5" width="39" height="350" rx="3.5" transform="rotate(90 351.5 34.5)" stroke="var(--color-bg-main, #fffefe)" />
    <rect x="298" y="75" width="10" height="74" />
    <rect x="0" y="580" width="370" height="10" rx="4" />
  </g>

  <g class="hangman">
    <circle class="head" cx="303" cy="202" r="47.5" stroke="#909090" stroke-width="5" opacity="var(--head-opacity)" />
    <rect x="301" y="251" width="5" height="132" fill="#909090" rx="2" opacity="var(--body-opacity)" />
    <rect x="302" y="268" width="5" height="100" transform="rotate(39.64 302 268)" fill="#909090" rx="2"
      opacity="var(--left-arm-opacity)" />
    <rect x="301.15" y="271.19" width="5" height="100" transform="rotate(-39.6353 301.15 271.19)" fill="#909090" rx="2"
      opacity="var(--right-arm-opacity)" />
    <rect x="301.796" y="378" width="5" height="100" transform="rotate(39.64 301.796 378)" fill="#909090" rx="2"
      opacity="var(--left-leg-opacity)" />
    <rect x="301.3" y="381.189" width="5" height="100" transform="rotate(-39.6353 301.3 381.189)" fill="#909090" rx="2"
      opacity="var(--right-leg-opacity)" />
  </g>
</svg>
